<svg version="1.1" id="Layer_1" xmlns:x="ns_extend;" xmlns:i="ns_ai;" xmlns:graph="ns_graphs;" xmlns="http://www.w3.org/2000/svg" xmlns:xlink="http://www.w3.org/1999/xlink" x="0px" y="0px" viewBox="0 0 130.3 90.9" style="enable-background:new 0 0 130.3 90.9;" xml:space="preserve">
 <style type="text/css">
  .st0{fill:#00BF6F;}
 </style>
 <metadata>
  <sfw xmlns="ns_sfw;">
   <slices>
   </slices>
   <sliceSourceBounds bottomLeftOrigin="true" height="90.9" width="130.3" x="-235" y="38">
   </sliceSourceBounds>
  </sfw>
 </metadata>
 <g>
  <path class="st0" d="M115,51.8c-1.2,0-2.4,0.2-3.6,0.4c-4.6-18.1-19.3-31.7-37.5-34.9c-0.8-0.2-1.6-0.2-2.4-0.4
		c0.2-4.4,0.4-9.6,7-14.2L77.3,0c0,0-12.8,4-14.2,15c-0.6-3-6.6-6.8-9.6-7.4L52,10c2.6,1.6,4.4,4.4,4.8,7.4
		c-18.5,3.2-33.1,16.9-37.7,34.9c-8.2-2-16.7,3-18.7,11.2s3,16.7,11.2,18.7c3.2,0.8,6.4,0.6,9.4-0.6c1.4,3.2,3,6.4,5,9.2l13-8.5
		l-0.2-0.2c-3.6-5-5.6-11-5.8-17.1c-0.4-7,1.4-14,5.8-18.1c9.2-7.8,19.3-4.2,25.7,3.2H66c6.2-7.6,16.3-11,25.7-3.2
		c4.4,4,6.2,11,5.8,18.1c-0.2,6.2-2.2,12-5.8,17.1l-0.2,0.2l12.8,8.6c2-2.8,3.6-6,5-9.2c7.8,3,16.9-0.8,19.9-8.6
		c3-7.8-0.8-16.9-8.6-19.9C118.8,52.2,116.8,51.8,115,51.8L115,51.8L115,51.8z M15.1,71.8c-2.4-0.2-4.4-2.2-4.2-4.8
		c0.2-2.4,2-4.2,4.2-4.4c1,0,1.8,0.2,2.6,0.8c0,2.4,0.2,4.8,0.4,7.2C17.3,71.4,16.3,71.9,15.1,71.8L15.1,71.8L15.1,71.8z
		 M115.2,71.8c-1.2,0-2.2-0.4-3-1.2c0.2-2.4,0.4-4.8,0.4-7.2c2-1.4,4.8-0.8,6.2,1.2c0.6,0.8,0.8,1.6,0.8,2.6
		C119.9,69.8,117.7,71.8,115.2,71.8L115.2,71.8L115.2,71.8z">
  </path>
 </g>
</svg>